<svg width="518" height="405" viewBox="0 0 518 405" fill="none" xmlns="http://www.w3.org/2000/svg">
<path opacity="0.1" d="M182.355 397.156C232.162 397.156 272.538 389.498 272.538 380.052C272.538 370.606 232.162 362.948 182.355 362.948C132.548 362.948 92.1718 370.606 92.1718 380.052C92.1718 389.498 132.548 397.156 182.355 397.156Z" fill="#6C63FF"/>
<path opacity="0.1" d="M301.38 57.116C268.236 55.9675 236.669 45.252 206.526 33.5316C176.383 21.8112 146.527 8.82956 114.176 2.62072C93.3691 -1.37324 69.5712 -1.94234 52.8097 9.21409C36.6729 19.9809 31.4596 38.5151 28.6584 55.7266C26.5484 68.6775 25.3091 82.3103 31.0858 94.4357C35.1008 102.854 42.2191 109.93 47.1457 117.994C64.2862 146.05 52.1695 180.647 33.6003 208.041C24.8943 220.889 14.7801 233.163 8.05599 246.827C1.33193 260.49 -1.77661 276.199 4.10759 290.176C9.93545 304.019 23.8291 314.396 38.8802 321.702C69.4483 336.545 105.455 340.79 140.591 343.2C218.346 348.521 296.51 346.219 374.469 343.907C403.321 343.056 432.297 342.19 460.678 337.724C476.441 335.242 492.711 331.305 504.157 321.799C518.68 309.735 522.28 289.309 512.545 274.184C496.219 248.806 451.091 242.505 439.666 215.275C433.388 200.283 439.835 183.59 448.966 169.69C468.549 139.866 501.371 113.703 503.097 79.6186C504.285 56.2085 488.506 32.7626 464.109 21.683C438.539 10.0703 403.075 11.5315 384.219 30.7528C364.785 50.5226 330.647 58.1363 301.38 57.116Z" fill="#6C63FF"/>
<path d="M275.043 185.465L259.357 174.878L267.269 163.086L225.839 159.779L210.952 171.305L192.316 160.845L176.773 162.717L176.589 158.615C176.396 154.339 175.967 150.077 175.303 145.849C175.37 144.567 175.416 143.096 175.411 141.496C175.411 134.754 174.499 125.817 170.495 119.86L171.416 111.564L163.939 102.72C165.14 100.326 166.509 98.0195 168.036 95.8192C168.292 95.4501 168.548 95.0912 168.825 94.7425C178.53 94.0401 186.186 86.0522 186.186 76.2852C186.186 75.834 186.186 75.3828 186.135 74.9368C186.135 74.7573 186.099 74.5728 186.078 74.3933C187.026 74.906 187.983 75.4187 188.941 75.9314C189.12 76.1878 189.325 76.4441 189.55 76.7466L189.596 76.803L189.883 77.1568L189.975 77.2645C190.078 77.3875 190.185 77.5054 190.293 77.6285L190.365 77.7105C190.636 78.013 190.923 78.3206 191.23 78.6231C191.267 78.6529 191.301 78.6855 191.332 78.7205L191.717 79.0794L191.824 79.1768C192.152 79.4691 192.5 79.7511 192.848 80.0177L192.961 80.0997L193.401 80.4022L193.545 80.4945C193.714 80.597 193.888 80.7047 194.057 80.8021L194.118 80.838C194.318 80.9457 194.523 81.0482 194.728 81.1456L194.83 81.1866C195.004 81.2618 195.175 81.3336 195.342 81.402L195.501 81.4584C195.68 81.5199 195.854 81.5763 196.039 81.6276L196.151 81.6583C196.377 81.7147 196.602 81.7609 196.833 81.7968H196.858C197.075 81.8319 197.294 81.8541 197.514 81.8634H197.662C197.858 81.8737 198.055 81.8737 198.251 81.8634H198.379C198.625 81.8492 198.869 81.8201 199.111 81.7762C200.257 81.6254 201.358 81.2303 202.338 80.6175C202.587 80.4504 202.809 80.2445 202.993 80.0074C204.018 78.6641 202.891 77.1927 202.891 77.1927C202.491 76.239 199.9 75.5674 199.9 75.5674C199.9 75.5674 191.706 72.1425 191.706 69.415C191.706 66.6874 189.658 52.5368 168.513 49.3016C168.513 49.3016 154.757 48.5274 150.891 55.9001L150.809 56.7614C149.672 57.4741 148.73 58.9045 147.608 59.325C147.124 59.4291 146.656 59.6018 146.22 59.8377V59.7402C146.091 59.8536 145.985 59.9912 145.908 60.1453C145.667 60.6252 145.523 61.1478 145.483 61.6834C145.367 62.3377 145.141 62.9672 144.812 63.5445C144.72 63.7085 144.618 63.8661 144.505 64.0162L144.418 64.1546C145.012 64.201 145.609 64.1043 146.159 63.8726C146.072 64.5746 145.9 65.2633 145.647 65.9234C145.972 65.934 146.294 65.8507 146.574 65.6834C146.853 65.5162 147.079 65.2721 147.224 64.9801V64.9391L147.291 64.8468C147.419 64.6094 147.526 64.3605 147.608 64.1033L147.552 64.1649C147.654 63.8316 147.746 63.4932 147.859 63.1651C147.911 62.9803 147.996 62.8065 148.11 62.6524C148.247 62.5144 148.414 62.4106 148.598 62.3491C148.782 62.2877 148.978 62.2704 149.17 62.2986L148.96 66.7438H149.052C148.929 67.0671 148.778 67.3793 148.602 67.6769C147.874 68.8561 146.553 69.6611 146.067 70.9531C145.857 71.5762 145.777 72.2358 145.831 72.8911C145.831 73.2756 145.877 73.6653 145.908 74.0498V74.019C145.98 75.0444 146 76.0186 145.447 76.844C145.068 77.408 144.459 77.8336 144.249 78.4744C144.191 78.653 144.165 78.8405 144.172 79.0282C144.213 79.59 144.33 80.1437 144.52 80.6739C144.522 80.6638 144.522 80.6533 144.52 80.6432C144.648 81.0332 144.678 81.4488 144.607 81.8531C144.377 82.8786 143.132 83.7348 143.194 84.714C143.19 84.8428 143.209 84.9712 143.25 85.0934C143.489 85.5718 143.904 85.9391 144.407 86.1188C145.197 86.5683 146.104 86.7685 147.009 86.6931C147.348 86.6317 147.676 86.5194 147.982 86.3598C147.623 87.1853 147.255 88.0005 146.881 88.7746C146.825 88.8977 146.763 89.0207 146.702 89.1438C146.702 89.1438 143.537 87.0263 141.739 91.3433C141.215 92.2404 140.839 93.2171 140.628 94.2349C140.538 94.6421 140.411 95.0402 140.249 95.4244C139.451 96.777 138.257 97.8509 136.828 98.5006C133.161 100.182 118.351 118.676 118.09 123.464C117.962 125.333 117.646 127.185 117.148 128.991C115.982 133.244 115.682 137.689 116.267 142.06C116.45 143.473 116.753 144.867 117.173 146.228C118.745 151.012 119.795 159.938 119.795 159.938L121.495 175.432C121.432 177.57 121.525 179.71 121.772 181.835C120.036 183.82 113.066 192.09 115.729 194.34C117.777 196.114 121.362 195.822 123.375 195.458C121.68 199.657 119.012 206.958 118.658 211.972C118.146 219.391 119.534 229.22 121.731 232.993C123.928 236.767 131.251 246.446 131.251 246.446C131.251 246.446 130.908 259.725 133.525 264.55C136.142 269.375 137.197 279.383 137.197 279.383C137.197 279.383 139.64 287.832 138.416 290.939C137.192 294.046 140.684 296.63 137.018 298.696C133.351 300.762 128.66 347.331 128.66 347.331C128.66 347.331 126.77 377.852 128.66 379.406C128.761 379.479 128.869 379.543 128.983 379.596V389.85C128.983 389.85 127.672 392.003 133.003 392.439C136.654 392.731 147.004 393.392 153.144 393.777L157.902 394.074C157.902 394.074 169.168 396.32 174.146 394.074C179.124 391.829 187.947 391.88 186.636 385.948C186.463 385.141 186.23 384.347 185.94 383.574C184.501 379.893 182.058 379.472 177.557 378.447C177.295 378.391 177.044 378.339 176.814 378.298C172.072 377.473 170.515 379.683 167.857 376.806C165.547 374.32 158.194 371.536 155.689 370.654C155.751 370.469 155.828 370.29 155.889 370.1C155.18 369.98 154.52 369.658 153.989 369.172L160.775 369.603L164.815 369.854C164.815 369.854 174.392 371.767 178.642 369.854C182.893 367.942 190.37 367.993 189.253 362.953C189.106 362.266 188.909 361.591 188.664 360.933C187.44 357.806 185.361 357.462 181.536 356.596C181.316 356.55 181.111 356.503 180.906 356.467C176.875 355.765 175.554 357.642 173.296 355.201C171.36 353.12 165.25 350.787 163.054 349.992C163.054 348.854 161.517 347.234 160.549 345.608C159.412 343.711 161.512 337.072 161.512 337.072L162.71 309.524C163.167 309.321 163.649 309.183 164.144 309.114C164.144 309.114 169.562 303.936 168.339 298.419C168.089 296.751 167.959 295.066 167.949 293.379C169.731 291.723 172.185 289.278 172.881 287.77C174.018 285.314 172.881 273.415 172.881 273.415V227.912L181.945 228.83L190.17 229.676L192.674 229.932L200.899 230.763L219.801 232.675L236.834 229.445L244.203 228.051L259.357 225.179V188.06L275.043 185.465ZM150.286 62.4627L149.232 62.3499C149.58 62.3653 149.948 62.4319 150.286 62.4627Z" fill="url(#paint0_linear)"/>
<path d="M238.278 209.568C233.157 216.904 214.746 213.018 214.746 213.018L200.479 199.652L198.558 197.842L201.78 190.992C201.78 190.992 202.804 191.274 204.56 191.777C213.784 194.458 242.6 203.4 238.278 209.568Z" fill="#EFB7B9"/>
<path opacity="0.1" d="M204.55 191.777C203.92 193.971 202.194 197.258 200.479 199.652L198.558 197.842L201.78 190.992C201.78 190.992 202.814 191.274 204.55 191.777Z" fill="black"/>
<path d="M155.618 114.533C155.618 114.533 142.466 120.373 143.112 134.713C143.576 143.952 144.581 153.155 146.123 162.276C146.123 162.276 143.434 183.856 154.629 189.418C165.824 194.981 176.184 199.555 176.184 199.555C176.184 199.555 193.698 201.441 195.875 202.221C198.051 203 204.852 191.085 203.598 189.229C202.343 187.373 186.268 183.481 184.219 180.385C182.171 177.288 177.434 175.375 177.434 175.375C177.434 175.375 172.543 172.412 172.21 169.736C171.877 167.059 173.168 165.065 173.495 163.891C173.823 162.717 174.653 151.381 174.653 151.381C174.653 151.381 180.173 111.031 155.618 114.533Z" fill="#DCE6F2"/>
<path opacity="0.1" d="M164.298 161.686C164.298 161.686 146.256 164.711 148.002 171.033C148.002 171.033 154.552 164.209 164.298 161.686Z" fill="black"/>
<path opacity="0.1" d="M164.436 164.245C164.436 164.245 154.517 172.35 156.458 172.766C158.398 173.181 164.436 164.245 164.436 164.245Z" fill="black"/>
<path opacity="0.1" d="M169.204 167.07C169.204 167.07 166.546 172.52 168.18 172.15C169.813 171.781 169.204 167.07 169.204 167.07Z" fill="black"/>
<path opacity="0.1" d="M205.216 192.356L204.12 192.043C204.432 191.018 204.519 190.187 204.263 189.803C203.009 187.947 186.944 184.061 184.9 180.959C182.857 177.857 178.115 175.95 178.115 175.95C178.115 175.95 173.224 172.986 172.891 170.31C172.558 167.634 173.849 165.639 174.177 164.465C174.504 163.291 175.334 151.95 175.334 151.95C175.334 151.95 180.839 111.605 156.283 115.107C156.283 115.107 143.132 120.952 143.772 135.292C144.237 144.531 145.244 153.735 146.789 162.855C146.789 162.855 144.1 184.435 155.295 189.998C166.49 195.561 176.85 200.134 176.85 200.134C176.85 200.134 194.359 202.015 196.541 202.8C197.365 203.097 198.855 201.564 200.315 199.457L201.145 200.231L215.412 213.592C215.412 213.592 233.823 217.484 238.944 210.147C243.271 203.974 214.46 195.032 205.216 192.356Z" fill="black"/>
<path d="M148.049 60.7092C147.547 60.8074 147.067 60.9931 146.63 61.2578C146.118 61.6834 146.118 62.4114 145.99 63.0472C145.839 63.9315 145.489 64.7698 144.966 65.4979C145.548 65.5407 146.133 65.444 146.671 65.2159C146.583 65.9176 146.411 66.6062 146.159 67.2667C146.478 67.2748 146.793 67.1907 147.065 67.0242C147.338 66.8578 147.556 66.6162 147.695 66.3285C147.966 65.7507 148.18 65.148 148.335 64.5289C148.383 64.3437 148.467 64.1696 148.581 64.0162C149.052 63.4573 149.928 63.7086 150.655 63.7803C151.26 63.8314 151.868 63.7196 152.416 63.4563C152.963 63.1931 153.43 62.7881 153.769 62.2832C154.542 61.1092 154.588 58.1047 152.745 57.7868C150.819 57.469 149.621 60.1248 148.049 60.7092Z" fill="#965D7B"/>
<g opacity="0.1">
<path opacity="0.1" d="M146.579 61.8885C146.625 61.6372 146.656 61.3758 146.712 61.1245C146.225 61.5501 146.2 62.273 146.072 62.9139C146.007 63.2836 145.906 63.646 145.77 63.9957C146.173 63.3522 146.448 62.6366 146.579 61.8885Z" fill="black"/>
<path opacity="0.1" d="M146.743 66.1234C146.998 65.4637 147.17 64.7748 147.255 64.0726C146.742 64.2886 146.187 64.3851 145.631 64.3546C145.47 64.7152 145.272 65.0587 145.042 65.38C145.623 65.425 146.206 65.33 146.743 65.1031C146.658 65.8053 146.486 66.4942 146.231 67.1539C146.55 67.1614 146.864 67.077 147.136 66.9106C147.409 66.7443 147.628 66.503 147.767 66.2157C147.895 65.9826 147.997 65.7369 148.074 65.4825C147.924 65.6928 147.723 65.8617 147.49 65.9737C147.258 66.0857 147.001 66.1372 146.743 66.1234Z" fill="black"/>
<path opacity="0.1" d="M151.239 62.637C150.512 62.5652 149.631 62.314 149.16 62.8729C149.048 63.0275 148.964 63.2012 148.914 63.3856C148.868 63.5189 148.827 63.6573 148.791 63.7957C149.278 63.4112 150.066 63.6163 150.727 63.6829C151.332 63.7324 151.939 63.6198 152.486 63.3567C153.034 63.0936 153.501 62.6895 153.841 62.1858C153.996 61.9369 154.112 61.6653 154.184 61.3809C153.833 61.8155 153.381 62.1572 152.868 62.3763C152.354 62.5953 151.795 62.6848 151.239 62.637Z" fill="black"/>
</g>
<path d="M163.463 103.053L171.273 112.456L170.254 121.947L160.816 107.155L163.463 103.053Z" fill="#DCE6F2"/>
<path opacity="0.1" d="M171.268 112.456L170.31 121.383L170.249 121.947L161.732 108.596L160.816 107.155L161.082 106.74L163.458 103.053L163.986 103.689L171.268 112.456Z" fill="black"/>
<path d="M175.324 90.323C172.681 91.0818 170.156 93.6863 167.959 96.8497C166.475 99.0323 165.147 101.318 163.985 103.689C163.263 105.135 162.628 106.524 162.101 107.734L161.732 108.596C160.841 110.703 160.344 112.113 160.344 112.113C160.344 112.113 140.116 96.8856 143.317 95.8602C144.392 95.5167 145.805 93.2095 147.203 90.3025L147.378 89.9333C148.264 88.0671 149.134 85.9855 149.907 84.027C151.49 80.0023 152.663 76.5056 152.663 76.5056C152.663 76.5056 183.389 88.0158 175.324 90.323Z" fill="#EFB7B9"/>
<path d="M187.425 75.6494C187.425 75.6494 192.096 84.109 198.369 82.9555C204.642 81.8019 202.061 78.4129 202.061 78.4129L187.425 75.6494Z" fill="#444053"/>
<path d="M178.376 368.48C174.238 370.372 164.882 368.48 164.882 368.48L160.938 368.234C155.817 367.906 147.244 367.352 144.213 367.106C139.788 366.742 140.874 364.927 140.874 364.927V353.96L162.342 348.515C162.342 348.515 170.827 351.422 173.152 353.96C175.36 356.38 176.65 354.519 180.588 355.216C180.783 355.252 180.988 355.293 181.203 355.345C184.941 356.201 186.969 356.539 188.168 359.641C188.408 360.293 188.602 360.961 188.746 361.641C189.852 366.634 182.509 366.598 178.376 368.48Z" fill="#A36468"/>
<path opacity="0.1" d="M188.168 359.641C187.398 360.122 186.59 360.537 185.75 360.882C182.934 362.169 180.255 363.738 177.408 364.953C174.561 366.168 171.493 367.034 168.41 366.804C166.797 366.686 165.148 366.291 163.607 366.752C162.653 367.121 161.755 367.619 160.938 368.234C155.817 367.906 147.244 367.352 144.213 367.106C139.788 366.742 140.874 364.927 140.874 364.927V363.645C141.033 363.645 141.212 363.599 141.417 363.584C142.476 363.567 143.532 363.724 144.54 364.05C146.763 364.655 148.975 365.25 151.198 365.845C151.381 365.154 151.702 364.508 152.142 363.946C152.582 363.383 153.132 362.917 153.759 362.574C155.027 361.9 156.451 361.572 157.886 361.625C161.333 361.671 164.595 363.307 168.036 363.471C168.998 363.56 169.967 363.397 170.848 362.999C171.319 362.763 171.734 362.42 172.195 362.158C172.932 361.801 173.712 361.538 174.515 361.374C176.771 360.812 178.987 360.096 181.146 359.231C181.761 358.99 182.478 358.554 182.396 357.898C182.288 357.026 180.921 356.924 180.563 356.124C180.499 355.98 180.47 355.823 180.477 355.665C180.484 355.508 180.528 355.354 180.604 355.216C180.798 355.252 181.003 355.293 181.218 355.345C184.941 356.201 186.969 356.539 188.168 359.641Z" fill="black"/>
<path d="M174.002 392.475C169.137 394.7 158.127 392.475 158.127 392.475L153.492 392.203C147.49 391.818 137.381 391.177 133.812 390.875C128.604 390.444 129.884 388.311 129.884 388.311V375.386L155.146 368.977C155.146 368.977 165.133 372.397 167.867 375.386C170.464 378.232 171.964 376.043 176.619 376.863C176.85 376.904 177.091 376.955 177.341 377.011C181.741 378.037 184.127 378.421 185.535 382.072C185.82 382.838 186.048 383.625 186.216 384.425C187.486 390.301 178.868 390.255 174.002 392.475Z" fill="#A36468"/>
<path opacity="0.1" d="M185.525 382.072C184.62 382.638 183.669 383.126 182.683 383.533C179.369 385.046 176.215 386.891 172.866 388.322C169.516 389.752 165.906 390.767 162.275 390.501C160.38 390.362 158.439 389.885 156.642 390.439C155.516 390.878 154.456 391.472 153.492 392.203C147.49 391.818 137.381 391.177 133.812 390.875C128.604 390.444 129.884 388.311 129.884 388.311V386.804C130.096 386.769 130.31 386.745 130.524 386.732C131.772 386.71 133.014 386.895 134.201 387.281L142.031 389.393C142.249 388.578 142.631 387.817 143.153 387.155C143.675 386.493 144.327 385.944 145.068 385.543C146.561 384.746 148.238 384.361 149.928 384.425C153.984 384.482 157.82 386.404 161.87 386.599C162.999 386.702 164.134 386.513 165.169 386.05C165.727 385.768 166.193 385.363 166.756 385.061C167.622 384.636 168.54 384.326 169.486 384.138C172.127 383.471 174.72 382.628 177.249 381.616C177.971 381.328 178.816 380.816 178.719 380.047C178.591 379.021 176.983 378.898 176.558 377.955C176.486 377.785 176.454 377.6 176.463 377.416C176.471 377.231 176.522 377.051 176.609 376.888C176.84 376.929 177.08 376.981 177.331 377.037C181.73 378.021 184.117 378.421 185.525 382.072Z" fill="black"/>
<path d="M162.992 303.782L161.625 335.995C161.625 335.995 159.576 342.573 160.688 344.455C161.799 346.336 163.673 348.213 162.992 349.325C162.311 350.438 154.117 362.466 151.469 357.852C148.822 353.237 146.21 333.242 146.21 333.242L148.653 308.545L162.992 303.782Z" fill="#444053"/>
<path d="M168.922 223.523L172.722 228.609V272.846C172.722 272.846 173.833 284.638 172.722 287.073C171.611 289.508 165.978 294.379 165.978 294.379L161.241 270.026L162.265 244.262L168.922 223.523Z" fill="#444053"/>
<path opacity="0.1" d="M162.992 303.782L161.625 335.995C161.625 335.995 159.576 342.573 160.688 344.455C161.799 346.336 163.673 348.213 162.992 349.325C162.311 350.438 154.117 362.466 151.469 357.852C148.822 353.237 146.21 333.242 146.21 333.242L148.653 308.545L162.992 303.782Z" fill="black"/>
<path opacity="0.1" d="M168.922 223.523L172.722 228.609V272.846C172.722 272.846 173.833 284.638 172.722 287.073C171.611 289.508 165.978 294.379 165.978 294.379L161.241 270.026L162.265 244.262L168.922 223.523Z" fill="black"/>
<path d="M172.722 204.656V228.584L168.456 247.21C168.456 247.21 167.089 292.159 168.282 297.625C169.475 303.09 164.185 308.222 164.185 308.222C164.185 308.222 161.113 308.566 161.113 310.955C161.113 313.344 155.991 320.183 155.991 320.183L156.16 333.514C156.16 333.514 158.383 358.467 154.967 363.251C151.551 368.034 156.16 368.721 156.16 368.721C151.894 382.733 131.41 379.488 129.561 377.95C127.712 376.412 129.561 346.162 129.561 346.162C129.561 346.162 134.139 300.019 137.724 297.968C141.309 295.917 137.898 293.354 139.092 290.277C140.285 287.201 137.898 278.829 137.898 278.829C137.898 278.829 136.874 268.913 134.314 264.13C131.753 259.346 132.091 246.185 132.091 246.185C132.091 246.185 124.921 236.613 122.791 232.855C120.661 229.097 119.288 219.355 119.8 212.003C120.148 207.035 122.755 199.801 124.409 195.637C125.203 193.643 125.777 192.351 125.777 192.351L126.263 192.479L154.235 199.811L172.722 204.656Z" fill="#444053"/>
<path opacity="0.1" d="M175.324 90.323C172.681 91.0818 170.156 93.6863 167.959 96.8497H167.386C164.166 96.852 161.002 96.0032 158.214 94.389C155.427 92.7749 153.114 90.4526 151.51 87.657C150.84 86.4985 150.301 85.269 149.902 83.9911C151.485 79.9664 152.658 76.4698 152.658 76.4698C152.658 76.4698 183.389 88.0158 175.324 90.323Z" fill="black"/>
<path d="M185.694 77.5054C185.699 80.3107 185.06 83.0796 183.827 85.5989C182.594 88.1181 180.8 90.3205 178.584 92.0362C176.367 93.752 173.786 94.9355 171.04 95.4954C168.295 96.0554 165.457 95.9768 162.747 95.266C160.036 94.5551 157.524 93.2307 155.406 91.395C153.287 89.5593 151.617 87.2611 150.525 84.6775C149.433 82.094 148.948 79.294 149.107 76.4932C149.267 73.6924 150.066 70.9656 151.444 68.5228C151.999 67.5303 152.647 66.5929 153.38 65.7235C154.587 64.2831 156.007 63.0349 157.589 62.0218C160.262 60.3212 163.33 59.3439 166.493 59.1854C169.656 59.0268 172.806 59.6925 175.636 61.1173C178.465 62.542 180.877 64.6772 182.635 67.3142C184.394 69.9512 185.439 72.9998 185.668 76.1621C185.679 76.6133 185.694 77.0594 185.694 77.5054Z" fill="#EFB7B9"/>
<path opacity="0.1" d="M170.31 121.383L170.249 121.947L161.732 108.616C160.841 110.723 160.344 112.133 160.344 112.133C160.344 112.133 140.116 96.8856 143.317 95.8602C144.392 95.5167 145.805 93.2095 147.203 90.3025L147.378 89.9333C148.863 94.3631 157.492 103.217 161.082 106.765C161.497 107.176 161.84 107.514 162.106 107.76L162.654 108.273L162.941 108.56C164.247 109.908 169.757 115.856 170.31 121.383Z" fill="black"/>
<path d="M176.676 166.613L175.744 196.642L175.58 201.99C175.58 201.99 164.539 200.964 154.235 199.837C145.939 198.929 138.119 197.95 136.915 197.376C135.379 196.653 132.086 196.094 129.489 195.74C127.482 195.468 125.905 195.325 125.905 195.325C125.905 195.325 125.316 195.499 124.409 195.663C122.433 196.022 118.96 196.314 116.938 194.556C114.351 192.305 121.147 184.127 122.842 182.164L123.216 181.738L122.576 175.816L120.912 160.461C120.912 160.461 119.887 151.617 118.351 146.874C117.94 145.526 117.644 144.145 117.465 142.747C116.894 138.415 117.187 134.014 118.325 129.796C118.812 128.004 119.121 126.168 119.247 124.315C119.503 119.573 133.97 101.244 137.555 99.5773C139.168 98.8244 140.466 97.529 141.222 95.9166C141.472 95.4096 141.659 94.8742 141.78 94.3221C143.317 87.6569 147.204 90.3025 147.204 90.3025C148.141 95.5167 162.649 109.319 162.649 109.319L162.936 109.606C164.375 111.082 170.786 118.014 170.331 123.931C170.24 126.133 170.568 128.332 171.298 130.411C174.25 139.714 175.946 149.37 176.343 159.123L176.676 166.613Z" fill="#DCE6F2"/>
<path opacity="0.1" d="M156.12 130.955C156.12 130.955 152.535 139.671 149.846 141.081C147.158 142.491 157.4 144.054 156.12 130.955Z" fill="black"/>
<path opacity="0.1" d="M158.808 147.233C158.808 147.233 150.614 148.259 150.614 149.797C150.614 151.335 158.808 147.233 158.808 147.233Z" fill="black"/>
<path opacity="0.1" d="M167.386 157.231C167.386 157.231 155.479 182.61 152.151 183.379C148.822 184.148 167.386 157.231 167.386 157.231Z" fill="black"/>
<path opacity="0.1" d="M162.424 110.606L152.576 114.892L140.689 96.9164C140.939 96.4094 141.127 95.874 141.248 95.3219C142.784 88.6567 146.671 91.3023 146.671 91.3023C147.608 96.5165 162.116 110.318 162.116 110.318L162.424 110.606Z" fill="black"/>
<path d="M162.936 109.58L153.088 113.866L141.202 95.891C141.451 95.384 141.639 94.8486 141.76 94.2965C143.296 87.6313 147.183 90.2769 147.183 90.2769C148.12 95.4911 162.628 109.293 162.628 109.293L162.936 109.58Z" fill="#DCE6F2"/>
<path opacity="0.1" d="M175.58 201.99C175.58 201.99 164.539 200.964 154.235 199.837L172.722 204.682V210.321C171.913 211.054 171.211 211.434 170.756 211.239C168.625 210.342 151.239 207.522 151.239 207.522C151.239 207.522 141.14 202.395 130.242 196.242C129.978 196.096 129.721 195.935 129.474 195.761C128.203 194.897 127.109 193.799 126.248 192.525C124.235 189.608 123.252 185.86 122.827 182.184C122.588 180.077 122.499 177.956 122.561 175.837C122.613 173.434 122.832 171.037 123.216 168.664C122.162 159.474 121.649 150.229 121.68 140.978C121.808 126.622 135.251 121.495 135.251 121.495C159.96 119.316 152.299 159.307 152.299 159.307C152.299 159.307 150.87 170.587 150.481 171.74C150.092 172.894 148.694 174.817 148.883 177.508C149.073 180.2 153.794 183.42 153.794 183.42C153.794 183.42 158.403 185.583 160.303 188.788C161.686 191.151 170.669 194.356 175.744 196.642L175.58 201.99Z" fill="black"/>
<path opacity="0.1" d="M183.856 66.1234C183.865 66.9679 183.69 67.8042 183.343 68.5741C183.081 69.2023 182.776 69.8121 182.432 70.3993C181.893 71.4795 181.128 72.4308 180.189 73.1885C179.006 74.0344 177.51 74.2703 176.092 74.6138C174.673 74.9573 173.198 75.5059 172.389 76.7159C171.951 77.4937 171.658 78.345 171.524 79.2281C171.388 80.1104 171.036 80.9454 170.5 81.6583C170.22 82.0064 169.833 82.2517 169.399 82.3556C168.965 82.4596 168.509 82.4163 168.103 82.2325C167.675 81.9435 167.35 81.5249 167.176 81.0379C166.592 79.7203 166.444 78.2591 166.208 76.8389C165.973 75.4187 165.64 73.9575 164.769 72.8142C163.898 71.6709 162.357 70.9172 160.99 71.3632C160.532 71.5396 160.115 71.8067 159.763 72.1486C159.411 72.4904 159.131 72.8999 158.941 73.3525C158.563 74.2586 158.303 75.2099 158.168 76.1826C157.533 79.6622 156.783 83.1212 155.92 86.5598C155.893 86.7007 155.836 86.8339 155.751 86.9494C155.615 87.0853 155.431 87.1625 155.239 87.1648C154.091 87.3186 152.99 86.5136 151.833 86.6008C151.714 86.6087 151.595 86.6276 151.48 86.6572C149.608 83.4013 148.782 79.6482 149.113 75.9065C149.444 72.1647 150.915 68.6152 153.328 65.7389L153.421 65.7132C154.19 65.4396 154.89 64.9983 155.469 64.4212C156.208 63.6806 156.893 62.8872 157.517 62.0474L157.927 61.5347C159.104 60.115 160.445 58.8397 161.922 57.7356C162.325 57.405 162.787 57.1544 163.284 56.9973C163.709 56.9143 164.145 56.9005 164.574 56.9563C166.343 57.1688 168.126 57.2357 169.906 57.1562C171.146 56.9611 172.395 56.8344 173.649 56.7768C176.891 56.8691 179.656 59.1609 181.705 61.6731C182.806 62.96 183.789 64.4417 183.856 66.1234Z" fill="black"/>
<path d="M149.052 69.0099C148.34 70.1789 147.055 70.9736 146.574 72.2553C145.867 74.1164 147.06 76.4339 145.964 78.095C145.601 78.6539 145.001 79.0692 144.797 79.71C144.448 80.7918 145.401 81.9454 145.155 83.058C144.909 84.1706 143.445 85.1088 143.834 86.1957C144.064 86.6698 144.467 87.037 144.96 87.2211C145.736 87.6668 146.63 87.8653 147.521 87.7902C148.919 87.5595 149.959 86.1855 151.377 86.0829C152.53 86.0009 153.631 86.8007 154.778 86.652C154.97 86.6453 155.153 86.5667 155.29 86.4316C155.377 86.3173 155.435 86.1836 155.459 86.0419C156.319 82.6068 157.07 79.1478 157.712 75.6648C157.843 74.6917 158.101 73.7402 158.48 72.8347C158.672 72.383 158.952 71.9743 159.304 71.6326C159.655 71.291 160.072 71.0233 160.529 70.8454C161.896 70.4045 163.432 71.153 164.308 72.2963C165.184 73.4397 165.517 74.9009 165.752 76.3211C165.988 77.7413 166.136 79.2025 166.715 80.5201C166.891 81.0088 167.217 81.4289 167.647 81.7198C168.415 82.1659 169.45 81.8121 170.039 81.1456C170.578 80.4324 170.93 79.595 171.063 78.7103C171.197 77.8288 171.49 76.9791 171.928 76.2031C172.738 74.9932 174.218 74.4446 175.631 74.1011C177.044 73.7575 178.535 73.5166 179.728 72.6706C180.666 71.9137 181.431 70.9644 181.971 69.8866C182.729 68.5639 183.436 67.1283 183.374 65.6056C183.308 63.9444 182.324 62.4627 181.275 61.1707C179.226 58.6584 176.456 56.3666 173.214 56.2795C171.96 56.332 170.71 56.4587 169.47 56.6589C167.691 56.739 165.907 56.6704 164.139 56.4538C163.709 56.4023 163.274 56.4179 162.849 56.4999C162.351 56.652 161.89 56.9031 161.492 57.2382C160.014 58.3406 158.671 59.6141 157.492 61.0322C156.732 62.0415 155.907 63.0005 155.024 63.9034C154.444 64.4814 153.745 64.9243 152.975 65.2005C152.463 65.3441 151.951 65.2415 151.464 65.4005C149.954 65.8773 149.754 67.8512 149.052 69.0099Z" fill="#965D7B"/>
<path opacity="0.1" d="M198.369 82.9503C194.272 83.704 190.877 80.3868 188.997 77.9669C188.42 77.2319 187.895 76.4576 187.425 75.6494L201.488 78.3052L202.056 78.4129C202.056 78.4129 204.642 81.8019 198.369 82.9503Z" fill="black"/>
<g opacity="0.1">
<path opacity="0.1" d="M145.155 81.5917C145.212 80.9211 145.111 80.2466 144.858 79.6229C144.858 79.6742 144.812 79.7254 144.797 79.7767C144.576 80.4637 144.874 81.1764 145.063 81.889C145.104 81.7933 145.135 81.6937 145.155 81.5917Z" fill="black"/>
<path opacity="0.1" d="M146.374 73.1987C146.321 73.9077 146.335 74.62 146.415 75.3264C146.467 74.6175 146.454 73.9051 146.374 73.1987Z" fill="black"/>
<path opacity="0.1" d="M181.94 68.4049C181.401 69.4851 180.636 70.4363 179.697 71.194C178.514 72.04 177.024 72.2758 175.6 72.6193C174.177 72.9629 172.707 73.5115 171.898 74.7214C171.46 75.4996 171.167 76.3508 171.032 77.2337C170.899 78.1182 170.547 78.9554 170.008 79.669C169.419 80.3355 168.385 80.6944 167.616 80.2433C167.187 79.9523 166.86 79.5322 166.684 79.0435C166.106 77.7259 165.952 76.2698 165.722 74.8445C165.491 73.4192 165.148 71.9631 164.277 70.8198C163.407 69.6764 161.865 68.9228 160.498 69.3688C160.041 69.546 159.624 69.8134 159.272 70.1551C158.92 70.4969 158.64 70.906 158.45 71.3581C158.07 72.2636 157.812 73.2152 157.681 74.1882C157.043 77.6712 156.292 81.1302 155.428 84.5654C155.404 84.707 155.346 84.8407 155.259 84.955C155.122 85.0901 154.939 85.1688 154.747 85.1755C153.6 85.3242 152.499 84.5243 151.347 84.6064C149.928 84.7089 148.888 86.083 147.49 86.3085C146.599 86.3886 145.704 86.1898 144.93 85.7394C144.574 85.5861 144.254 85.359 143.993 85.0729C143.873 85.2447 143.793 85.4415 143.761 85.6484C143.728 85.8553 143.742 86.067 143.803 86.2675C144.029 86.7449 144.434 87.1135 144.93 87.2929C145.704 87.7433 146.599 87.9421 147.49 87.862C148.888 87.6365 149.928 86.2624 151.347 86.1599C152.499 86.0778 153.6 86.8777 154.747 86.729C154.939 86.7223 155.122 86.6436 155.259 86.5085C155.346 86.3942 155.404 86.2605 155.428 86.1189C156.288 82.7008 157.04 79.2418 157.681 75.7417C157.812 74.7687 158.07 73.8171 158.45 72.9116C158.64 72.4595 158.92 72.0503 159.272 71.7086C159.624 71.3669 160.041 71.0995 160.498 70.9223C161.865 70.4762 163.402 71.2299 164.277 72.3733C165.153 73.5166 165.486 74.9778 165.722 76.398C165.957 77.8182 166.106 79.2794 166.684 80.597C166.86 81.0857 167.187 81.5058 167.616 81.7968C168.385 82.2428 169.419 81.889 170.008 81.2225C170.547 80.5089 170.899 79.6717 171.032 78.7872C171.167 77.9043 171.46 77.0531 171.898 76.2749C172.707 75.0649 174.187 74.5215 175.6 74.1728C177.014 73.8242 178.504 73.5935 179.697 72.7475C180.636 71.9898 181.401 71.0386 181.94 69.9584C182.698 68.6408 183.405 67.2052 183.343 65.6825C183.333 65.4867 183.313 65.2916 183.282 65.098C183.035 66.2715 182.581 67.3913 181.94 68.4049Z" fill="black"/>
</g>
<path opacity="0.1" d="M183.364 68.5587C184.677 70.8964 185.456 73.4969 185.643 76.1724C181.08 73.6089 176.788 70.7941 174.622 69.8149C170.848 68.1076 156.734 68.3639 151.428 68.5229C151.983 67.5303 152.632 66.5929 153.364 65.7235C154.577 64.2819 156.001 63.0337 157.589 62.0218C159.692 60.6856 162.045 59.7928 164.505 59.398C166.964 59.0032 169.478 59.1146 171.893 59.7255C174.307 60.3364 176.572 61.4339 178.549 62.9509C180.526 64.4679 182.173 66.3726 183.39 68.5485L183.364 68.5587Z" fill="black"/>
<path opacity="0.1" d="M199.649 80.7765C197.186 81.5353 193.166 80.069 188.997 77.9669C188.42 77.2319 187.895 76.4576 187.425 75.6494L201.488 78.3052C202.42 78.941 202.655 79.8485 199.649 80.7765Z" fill="black"/>
<path d="M168.477 50.7833C168.477 50.7833 155.034 50.0142 151.254 57.3203L150.645 63.7957L149.621 63.6829L149.416 68.087C149.416 68.087 169.962 67.1898 174.638 69.3022C179.313 71.4145 193.842 82.0582 199.665 80.2638C205.487 78.4693 199.152 76.803 199.152 76.803C199.152 76.803 191.138 73.4038 191.138 70.7377C191.138 68.0717 189.151 53.9877 168.477 50.7833Z" fill="#444053"/>
<path opacity="0.1" d="M142.548 290.831C142.548 290.831 151.126 299.163 154.839 298.522C154.839 298.522 144.341 297.624 142.548 290.831Z" fill="black"/>
<path opacity="0.1" d="M140.756 294.692C140.756 294.692 141.524 298.978 143.573 298.558C145.621 298.137 140.756 294.692 140.756 294.692Z" fill="black"/>
<path opacity="0.1" d="M154.199 366.327C154.199 366.327 142.021 375.812 144.075 376.068C146.128 376.325 154.199 366.327 154.199 366.327Z" fill="black"/>
<path d="M170.489 178.077L209.922 171.653V209.029L172.456 207.066L170.489 178.077Z" fill="#6C63FF"/>
<path opacity="0.05" d="M170.489 178.077L209.922 171.653V209.029L172.456 207.066L170.489 178.077Z" fill="black"/>
<path d="M209.922 171.653L257.211 175.196L254.594 207.722L209.922 209.029V171.653Z" fill="#6C63FF"/>
<path opacity="0.1" d="M209.922 171.653L257.211 175.196L254.594 207.722L209.922 209.029V171.653Z" fill="black"/>
<path d="M224.461 160.246L209.922 171.653L257.211 175.196L264.939 163.522L224.461 160.246Z" fill="#6C63FF"/>
<path d="M156.212 165.619L191.711 161.291L209.922 171.653L170.489 178.077L156.212 165.619Z" fill="#6C63FF"/>
<path d="M218.567 181.359V232.46L200.095 230.563L192.06 229.743L189.612 229.486L181.582 228.661L170.489 227.522V178.077L209.917 180.764L218.567 181.359Z" fill="#6C63FF"/>
<path d="M257.211 175.196V225.031L242.406 227.876L235.205 229.261L218.567 232.46V181.359L257.211 175.196Z" fill="#6C63FF"/>
<path opacity="0.05" d="M257.211 175.196V225.031L242.406 227.876L235.205 229.261L218.567 232.46V181.359L257.211 175.196Z" fill="black"/>
<path d="M156.212 188.834L170.489 178.077L218.567 181.359L211.489 193.294L156.212 188.834Z" fill="#6C63FF"/>
<path opacity="0.1" d="M156.212 188.834L170.489 178.077L218.567 181.359L211.489 193.294L156.212 188.834Z" fill="white"/>
<path d="M257.211 175.196L218.567 181.359L231.144 192.638L272.538 185.686L257.211 175.196Z" fill="#6C63FF"/>
<path opacity="0.1" d="M257.211 175.196L218.567 181.359L231.144 192.638L272.538 185.686L257.211 175.196Z" fill="white"/>
<path opacity="0.1" d="M242.406 227.876L235.205 229.261V218.612L241.95 216.91L242.406 227.876Z" fill="white"/>
<path opacity="0.1" d="M200.095 223.518V230.563L192.06 229.743V223.518H200.095Z" fill="white"/>
<path opacity="0.1" d="M189.612 225.738V229.486L181.582 228.661V225.738H189.612Z" fill="white"/>
<path opacity="0.1" d="M213.732 219.781C208.227 226.83 190.047 221.96 190.047 221.96L176.537 207.85L174.704 205.938L178.289 199.273C178.289 199.273 179.313 199.611 181.024 200.206C190.078 203.374 218.367 213.849 213.732 219.781Z" fill="black"/>
<path d="M213.22 218.755C207.715 225.805 189.535 220.934 189.535 220.934L176.025 206.825L174.192 204.912L177.777 198.247C177.777 198.247 178.801 198.585 180.512 199.18C189.566 202.349 217.855 212.823 213.22 218.755Z" fill="#EFB7B9"/>
<path opacity="0.1" d="M180.491 199.18C179.743 201.334 177.843 204.523 176.005 206.825L174.172 204.912L177.756 198.247C177.756 198.247 178.786 198.585 180.491 199.18Z" fill="black"/>
<path d="M135.763 119.445C135.763 119.445 122.32 124.572 122.192 138.927C122.161 148.178 122.674 157.423 123.728 166.613C123.728 166.613 119.887 188.019 130.77 194.171C141.652 200.324 151.766 205.451 151.766 205.451C151.766 205.451 169.153 208.271 171.288 209.168C173.424 210.065 180.844 198.529 179.692 196.606C178.54 194.684 162.71 189.941 160.831 186.737C158.951 183.533 154.322 181.374 154.322 181.374C154.322 181.374 149.6 178.149 149.411 175.457C149.221 172.766 150.614 170.843 151.009 169.69C151.403 168.536 152.832 157.256 152.832 157.256C152.832 157.256 160.472 117.24 135.763 119.445Z" fill="#DCE6F2"/>
<path opacity="0.1" d="M141.908 166.972C141.908 166.972 123.728 169.023 125.137 175.432C125.137 175.432 132.045 168.967 141.908 166.972Z" fill="black"/>
<path opacity="0.1" d="M141.908 169.536C141.908 169.536 131.589 177.098 133.484 177.611C135.379 178.124 141.908 169.536 141.908 169.536Z" fill="black"/>
<path opacity="0.1" d="M146.517 172.612C146.517 172.612 143.573 177.913 145.237 177.636C146.901 177.36 146.517 172.612 146.517 172.612Z" fill="black"/>
<path d="M335.805 57.6228C335.805 57.6228 316.345 56.4487 318.619 70.1174C318.619 70.1174 318.163 72.5322 320.349 73.6294C320.349 73.6294 320.385 72.604 322.347 72.9577C323.045 73.0754 323.755 73.1098 324.462 73.0603C325.419 72.9963 326.33 72.6199 327.053 71.9887C327.053 71.9887 332.528 69.7277 334.658 60.7656C334.658 60.7656 336.235 58.8071 336.194 58.3047L332.907 59.7146C332.907 59.7146 334.028 62.0884 333.142 64.0623C333.142 64.0623 333.04 59.8018 332.405 59.8992C332.277 59.8992 330.699 60.7246 330.699 60.7246C330.699 60.7246 332.63 64.857 331.17 67.8666C331.17 67.8666 331.724 62.7703 330.095 61.022L327.78 62.3755C327.78 62.3755 330.039 66.6464 328.507 70.1327C328.507 70.1327 328.902 64.7852 327.294 62.7037L325.194 64.3392C325.194 64.3392 327.319 68.5536 326.024 71.4453C326.024 71.4453 325.855 65.221 324.738 64.7494C324.738 64.7494 322.905 66.3695 322.628 67.036C322.628 67.036 324.078 70.1122 323.176 71.7067C323.176 71.7067 322.623 67.559 322.152 67.5385C322.152 67.5385 320.324 70.2865 320.134 72.1528C320.223 70.4129 320.765 68.7266 321.707 67.2616C320.653 67.4612 319.681 67.9656 318.91 68.7126C318.91 68.7126 319.192 66.7694 322.157 66.6002C322.157 66.6002 323.694 64.5135 324.073 64.3853C324.073 64.3853 321.123 64.1392 319.335 64.9339C319.335 64.9339 320.908 63.1036 324.615 63.9085L326.664 62.2166C326.664 62.2166 322.782 61.7039 321.133 62.273C321.133 62.273 323.028 60.6529 327.222 61.8321L329.475 60.4837C329.475 60.4837 326.167 59.7659 324.195 60.0274C324.195 60.0274 326.275 58.9045 330.136 60.1196L331.749 59.3967C331.749 59.3967 329.322 58.9199 328.615 58.843C327.908 58.7661 327.867 58.5713 327.867 58.5713C329.403 58.3154 330.979 58.4929 332.42 59.084C332.42 59.084 335.877 57.8381 335.805 57.6228Z" fill="#6C63FF"/>
<path opacity="0.1" d="M394.934 125.987C394.934 125.987 375.474 124.813 377.747 138.481C377.747 138.481 377.292 140.896 379.478 141.993C379.478 141.993 379.514 140.968 381.481 141.322C382.179 141.439 382.889 141.474 383.596 141.424C384.542 141.355 385.44 140.981 386.156 140.358C386.156 140.358 391.636 138.092 393.766 129.13C393.766 129.13 395.338 127.176 395.277 126.674L391.989 128.079C391.989 128.079 393.111 130.452 392.23 132.426C392.23 132.426 392.122 128.166 391.492 128.263C391.364 128.263 389.782 129.089 389.782 129.089C389.782 129.089 391.718 133.226 390.258 136.23C390.258 136.23 390.811 131.134 389.178 129.386L386.888 130.724C386.888 130.724 389.147 134.995 387.616 138.481C387.616 138.481 388.01 133.134 386.402 131.052L384.307 132.693C384.307 132.693 386.428 136.902 385.137 139.794C385.137 139.794 384.968 133.57 383.852 133.098C383.852 133.098 382.018 134.718 381.737 135.385C381.737 135.385 383.191 138.461 382.29 140.055C382.29 140.055 381.737 135.907 381.266 135.887C381.266 135.887 379.437 138.635 379.248 140.501C379.339 138.761 379.883 137.075 380.825 135.61C379.77 135.81 378.796 136.314 378.024 137.061C378.024 137.061 378.311 135.118 381.276 134.949C381.276 134.949 382.786 132.862 383.191 132.734C383.191 132.734 380.241 132.488 378.454 133.282C378.454 133.282 380.026 131.452 383.729 132.283L385.777 130.591C385.777 130.591 381.89 130.078 380.246 130.647C380.246 130.647 382.141 129.027 386.335 130.206L388.589 128.858C388.589 128.858 385.275 128.145 383.304 128.402C383.304 128.402 385.388 127.279 389.249 128.494L390.862 127.771C390.862 127.771 388.435 127.294 387.723 127.217C387.011 127.14 386.976 126.945 386.976 126.945C388.513 126.689 390.091 126.867 391.533 127.458C391.533 127.458 394.995 126.202 394.934 125.987Z" fill="#6C63FF"/>
<path opacity="0.1" d="M276.712 113.851C276.712 113.851 281.193 94.8348 267.346 94.7681C267.346 94.7681 265.046 93.9068 263.597 95.8756C263.597 95.8756 264.585 96.0858 263.914 97.9623C263.682 98.6258 263.528 99.314 263.454 100.013C263.354 100.966 263.568 101.926 264.063 102.746C264.063 102.746 265.359 108.539 273.793 112.169C273.793 112.169 275.452 114.056 275.954 114.077L275.135 110.595C275.135 110.595 272.605 111.298 270.813 110.083C270.813 110.083 275.027 110.703 275.032 110.083C275.032 109.954 274.52 108.257 274.52 108.257C274.52 108.257 270.121 109.457 267.407 107.504C267.407 107.504 272.329 108.919 274.331 107.611L273.409 105.089C273.409 105.089 268.8 106.591 265.645 104.484C265.645 104.484 270.843 105.786 273.168 104.556L271.914 102.207C271.914 102.207 267.407 103.582 264.78 101.813C264.78 101.813 270.925 102.705 271.591 101.69C271.591 101.69 270.311 99.6029 269.701 99.2133C269.701 99.2133 266.444 100.126 265.01 98.9621C265.01 98.9621 269.184 99.121 269.281 98.6801C269.281 98.6801 266.89 96.4088 265.067 95.8961C266.766 96.2834 268.335 97.1068 269.619 98.2853C269.601 97.2108 269.27 96.165 268.667 95.2757C268.667 95.2757 270.531 95.891 270.203 98.8647C270.203 98.8647 271.996 100.71 272.052 101.131C272.052 101.131 272.795 98.2648 272.318 96.3627C272.318 96.3627 273.855 98.2289 272.405 101.741L273.716 104.074C273.716 104.074 274.904 100.331 274.602 98.6083C274.602 98.6083 275.877 100.751 273.998 104.689L274.945 107.145C274.945 107.145 276.21 103.997 276.292 102.018C276.292 102.018 277.045 104.263 275.186 107.868L275.627 109.58C275.627 109.58 276.507 107.268 276.702 106.581C276.897 105.894 277.096 105.889 277.096 105.889C277.088 107.448 276.647 108.975 275.821 110.298C275.821 110.298 276.492 113.877 276.712 113.851Z" fill="#6C63FF"/>
<path opacity="0.1" d="M234.094 120.332C234.094 120.332 218.464 108.627 212.877 121.306C212.877 121.306 211.172 123.075 212.396 125.192C212.396 125.192 212.98 124.367 214.444 125.735C214.963 126.219 215.537 126.639 216.155 126.986C216.991 127.453 217.957 127.633 218.905 127.499C218.905 127.499 224.722 128.622 231.421 122.311C231.421 122.311 233.812 121.542 234.038 121.09L230.509 120.47C230.509 120.47 230.141 123.069 228.323 124.233C228.323 124.233 230.571 120.614 229.987 120.352C229.869 120.296 228.107 120.096 228.107 120.096C228.107 120.096 227.452 124.618 224.584 126.325C224.584 126.325 227.846 122.372 227.442 120.014L224.763 119.87C224.763 119.87 224.308 124.684 221.112 126.756C221.112 126.756 224.374 122.505 224.185 119.88L221.532 120.096C221.532 120.096 220.994 124.777 218.326 126.479C218.326 126.479 221.598 121.188 220.928 120.183C220.928 120.183 218.505 120.526 217.906 120.926C217.906 120.926 217.44 124.279 215.801 125.13C215.801 125.13 217.619 121.362 217.251 121.101C217.251 121.101 214.214 122.387 213.021 123.854C214.053 122.45 215.433 121.34 217.025 120.634C216.035 120.222 214.946 120.108 213.891 120.306C213.891 120.306 215.192 118.84 217.763 120.332C217.763 120.332 220.17 119.424 220.579 119.537C220.579 119.537 218.249 117.706 216.319 117.389C216.319 117.389 218.644 116.722 221.281 119.439L223.939 119.168C223.939 119.168 220.984 116.604 219.289 116.174C219.289 116.174 221.762 115.861 224.615 119.152L227.237 119.27C227.237 119.27 224.866 116.85 223.078 115.979C223.078 115.979 225.429 116.184 227.99 119.327L229.736 119.609C229.736 119.609 227.969 117.876 227.416 117.425C226.863 116.973 226.94 116.784 226.94 116.784C228.365 117.415 229.586 118.431 230.468 119.716C230.468 119.716 234.027 120.542 234.094 120.332Z" fill="#6C63FF"/>
<path opacity="0.1" d="M286.13 11.582C286.13 11.582 270.5 -0.128187 264.913 12.5561C264.913 12.5561 263.208 14.3249 264.432 16.4424C264.432 16.4424 265.015 15.6169 266.48 16.9859C267.002 17.4666 267.577 17.8847 268.196 18.2317C269.032 18.6984 269.998 18.8784 270.946 18.7444C270.946 18.7444 276.763 19.8673 283.462 13.5507C283.462 13.5507 285.853 12.7868 286.074 12.3305L282.545 11.7204C282.545 11.7204 282.182 14.3198 280.358 15.4836C280.358 15.4836 282.612 11.864 282.028 11.6025C281.91 11.5461 280.148 11.3461 280.148 11.3461C280.148 11.3461 279.472 15.8784 276.605 17.5755C276.605 17.5755 279.862 13.6225 279.462 11.2641L276.784 11.1205C276.784 11.1205 276.323 15.9348 273.132 18.001C273.132 18.001 276.395 13.7507 276.205 11.1257L273.558 11.341C273.558 11.341 273.015 16.0271 270.347 17.7293C270.347 17.7293 273.624 12.4382 272.953 11.4333C272.953 11.4333 270.531 11.7768 269.932 12.1767C269.932 12.1767 269.466 15.5298 267.827 16.3809C267.827 16.3809 269.645 12.6125 269.276 12.3459C269.276 12.3459 266.239 13.6379 265.046 15.1042C266.077 13.6988 267.458 12.5886 269.051 11.8845C268.059 11.4692 266.968 11.3551 265.912 11.5563C265.912 11.5563 267.218 10.09 269.788 11.582C269.788 11.582 272.195 10.6694 272.605 10.7873C272.605 10.7873 270.275 8.95692 268.344 8.63392C268.344 8.63392 270.664 7.97253 273.301 10.6847L275.959 10.413C275.959 10.413 273.01 7.84948 271.309 7.41368C271.309 7.41368 273.783 7.10606 276.64 10.3976L279.263 10.5104C279.263 10.5104 276.891 8.09046 275.099 7.22399C275.099 7.22399 277.455 7.42907 280.015 10.5719L281.757 10.8539C281.757 10.8539 279.985 9.1415 279.431 8.70057C278.878 8.25965 278.955 8.06482 278.955 8.06482C280.38 8.69574 281.602 9.71116 282.484 10.9975C282.484 10.9975 286.043 11.7768 286.13 11.582Z" fill="#6C63FF"/>
<path opacity="0.1" d="M345.853 26.4145C345.853 26.4145 339.605 7.90076 327.821 15.176C327.821 15.176 325.414 15.6887 325.225 18.1036C325.225 18.1036 326.172 17.7549 326.592 19.7032C326.748 20.3962 326.984 21.0689 327.294 21.7079C327.717 22.5678 328.407 23.2675 329.26 23.7023C329.26 23.7023 333.419 27.9321 342.514 26.5324C342.514 26.5324 344.916 27.2605 345.356 27.0092L342.796 24.4919C342.796 24.4919 341.024 26.4247 338.862 26.3478C338.862 26.3478 342.77 24.6457 342.447 24.0971C342.381 23.9894 341.044 22.8256 341.044 22.8256C341.044 22.8256 337.941 26.1735 334.612 25.9531C334.612 25.9531 339.533 24.5483 340.537 22.3641L338.417 20.7286C338.417 20.7286 335.313 24.4303 331.508 24.3175C331.508 24.3175 336.63 22.6718 337.925 20.3953L335.621 19.0674C335.621 19.0674 332.548 22.6205 329.363 22.5077C329.363 22.5077 335.057 20.0108 335.073 18.8008C335.073 18.8008 332.886 17.7088 332.164 17.6985C332.164 17.6985 329.88 20.1954 328.067 19.9698C328.067 19.9698 331.693 17.8934 331.539 17.4678C331.539 17.4678 328.313 16.8064 326.495 17.3396C328.139 16.7665 329.905 16.6339 331.616 16.9551C331.032 16.0522 330.197 15.3395 329.214 14.9043C329.214 14.9043 331.119 14.4377 332.394 17.1243C332.394 17.1243 334.894 17.7447 335.16 18.0677C335.16 18.0677 334.279 15.2427 332.871 13.8789C332.871 13.8789 335.16 14.6531 335.785 18.4009L338.13 19.6827C338.13 19.6827 337.162 15.8836 335.995 14.5557C335.995 14.5557 338.212 15.7041 338.693 20.0365L340.793 21.6207C340.793 21.6207 340.209 18.2779 339.226 16.5449C339.226 16.5449 341.049 18.0523 341.377 22.0975L342.652 23.3178C342.652 23.3178 342.181 20.8875 341.986 20.2005C341.792 19.5135 341.951 19.4674 341.951 19.4674C342.765 20.7974 343.195 22.327 343.195 23.8869C343.195 23.8869 345.674 26.5478 345.853 26.4145Z" fill="#6C63FF"/>
<path opacity="0.1" d="M305.078 27.3271C305.078 27.3271 285.669 25.1635 287.272 38.9501C287.272 38.9501 286.693 41.3393 288.808 42.539C288.808 42.539 288.895 41.5136 290.857 41.9751C291.55 42.1244 292.258 42.1949 292.967 42.1853C293.924 42.168 294.85 41.8386 295.604 41.247C295.604 41.247 301.191 39.2629 303.798 30.4187C303.798 30.4187 305.467 28.5474 305.432 28.0398L302.077 29.2805C302.077 29.2805 303.101 31.7056 302.077 33.6334C302.077 33.6334 302.185 29.3728 301.565 29.4395C301.437 29.4395 299.819 30.1777 299.819 30.1777C299.819 30.1777 301.539 34.4076 299.931 37.3556C299.931 37.3556 300.741 32.2901 299.199 30.4649L296.818 31.6954C296.818 31.6954 298.866 36.079 297.151 39.4833C297.151 39.4833 297.816 34.1615 296.316 32.003L294.139 33.5411C294.139 33.5411 296.044 37.8529 294.605 40.6779C294.605 40.6779 294.754 34.4537 293.663 33.9256C293.663 33.9256 291.748 35.4637 291.435 36.0995C291.435 36.0995 292.731 39.227 291.753 40.7907C291.753 40.7907 291.41 36.6224 290.959 36.5814C290.959 36.5814 288.993 39.2321 288.706 41.1035C288.884 39.3685 289.512 37.7104 290.529 36.2943C289.466 36.4413 288.47 36.8957 287.661 37.6017C287.661 37.6017 288.04 35.6791 291.01 35.6586C291.01 35.6586 292.624 33.6539 293.059 33.5462C293.059 33.5462 290.124 33.1514 288.296 33.8538C288.296 33.8538 289.961 32.1004 293.617 33.1207L295.773 31.5364C295.773 31.5364 291.876 30.7469 290.227 31.2596C290.227 31.2596 292.204 29.7214 296.331 31.1314L298.651 29.8958C298.651 29.8958 295.379 29.0139 293.397 29.1729C293.397 29.1729 295.532 28.1474 299.327 29.5676L300.976 28.9268C300.976 28.9268 298.574 28.3269 297.868 28.2141C297.161 28.1013 297.135 27.9065 297.135 27.9065C298.683 27.7286 300.251 27.9842 301.662 28.6448C301.662 28.6448 305.114 27.5425 305.078 27.3271Z" fill="#6C63FF"/>
<path opacity="0.1" d="M474.895 178.149C474.895 178.149 455.496 175.986 457.099 189.757C457.099 189.757 456.521 192.146 458.636 193.346C458.636 193.346 458.723 192.32 460.684 192.777C461.377 192.931 462.085 193.002 462.794 192.987C463.752 192.972 464.679 192.642 465.431 192.049C465.431 192.049 471.019 190.064 473.6 181.225C473.6 181.225 475.269 179.349 475.233 178.846L471.879 180.082C471.879 180.082 472.903 182.512 471.879 184.44C471.879 184.44 471.987 180.174 471.367 180.246C471.239 180.246 469.621 180.979 469.621 180.979C469.621 180.979 471.341 185.209 469.733 188.157C469.733 188.157 470.542 183.097 469.001 181.266L466.62 182.502C466.62 182.502 468.668 186.886 466.958 190.29C466.958 190.29 467.618 184.968 466.118 182.804L463.941 184.343C463.941 184.343 465.846 188.654 464.407 191.474C464.407 191.474 464.556 185.25 463.465 184.727C463.465 184.727 461.555 186.265 461.237 186.901C461.237 186.901 462.538 190.028 461.555 191.592C461.555 191.592 461.212 187.424 460.761 187.383C460.761 187.383 458.794 190.034 458.508 191.905C458.685 190.17 459.314 188.512 460.331 187.096C459.267 187.24 458.27 187.695 457.463 188.403C457.463 188.403 457.842 186.475 460.812 186.455C460.812 186.455 462.43 184.45 462.861 184.348C462.861 184.348 459.926 183.948 458.098 184.65C458.098 184.65 459.762 182.902 463.424 183.922L465.575 182.338C465.575 182.338 461.724 181.61 460.049 182.112C460.049 182.112 462.026 180.574 466.154 181.979L468.473 180.749C468.473 180.749 465.201 179.867 463.219 180.026C463.219 180.026 465.355 179 469.149 180.42L470.798 179.774C470.798 179.774 468.397 179.175 467.69 179.067C466.983 178.959 466.958 178.759 466.958 178.759C468.505 178.578 470.073 178.832 471.485 179.492C471.485 179.492 474.947 178.37 474.895 178.149Z" fill="#6C63FF"/>
<path opacity="0.1" d="M504.552 196.289C504.552 196.289 485.153 194.13 486.756 207.896C486.756 207.896 486.182 210.285 488.292 211.485C488.292 211.485 488.379 210.46 490.341 210.921C491.032 211.072 491.738 211.141 492.445 211.126C493.399 211.107 494.32 210.779 495.073 210.193C495.073 210.193 500.655 208.209 503.236 199.365C503.236 199.365 504.91 197.493 504.869 196.986L501.515 198.221C501.515 198.221 502.539 200.652 501.515 202.579C501.515 202.579 501.622 198.319 501.003 198.386C500.875 198.386 499.257 199.119 499.257 199.119C499.257 199.119 500.977 203.349 499.369 206.297C499.369 206.297 500.178 201.236 498.637 199.411L496.256 200.641C496.256 200.641 498.304 205.025 496.594 208.429C496.594 208.429 497.254 203.108 495.754 200.949L493.577 202.487C493.577 202.487 495.482 206.799 494.048 209.624C494.048 209.624 494.192 203.395 493.101 202.872C493.101 202.872 491.191 204.41 490.873 205.046C490.873 205.046 492.174 208.173 491.191 209.737C491.191 209.737 490.848 205.569 490.397 205.528C490.397 205.528 488.43 208.178 488.149 210.05C488.326 208.315 488.953 206.658 489.967 205.24C488.904 205.387 487.907 205.842 487.099 206.548C487.099 206.548 487.483 204.62 490.453 204.605C490.453 204.605 492.066 202.6 492.502 202.492C492.502 202.492 489.567 202.098 487.739 202.8C487.739 202.8 489.403 201.046 493.065 202.067L495.216 200.483C495.216 200.483 491.365 199.754 489.69 200.257C489.69 200.257 491.667 198.719 495.795 200.129L498.115 198.893C498.115 198.893 494.842 198.011 492.86 198.17C492.86 198.17 494.996 197.145 498.791 198.565L500.44 197.924C500.44 197.924 498.038 197.324 497.336 197.211C496.635 197.099 496.599 196.904 496.599 196.904C498.147 196.726 499.714 196.982 501.126 197.642C501.126 197.642 504.603 196.509 504.552 196.289Z" fill="#6C63FF"/>
<path opacity="0.1" d="M438.709 43.4978C438.709 43.4978 423.08 31.7928 417.493 44.4719C417.493 44.4719 415.787 46.2408 417.011 48.3582C417.011 48.3582 417.595 47.5328 419.06 48.9017C419.578 49.3849 420.153 49.8048 420.77 50.1527C421.607 50.6186 422.572 50.7986 423.52 50.6654C423.52 50.6654 429.338 51.7882 436.041 45.4768C436.041 45.4768 438.428 44.7078 438.653 44.2566L435.135 43.6208C435.135 43.6208 434.766 46.2202 432.948 47.3841C432.948 47.3841 435.196 43.7644 434.612 43.5029C434.495 43.4465 432.738 43.2466 432.738 43.2466C432.738 43.2466 432.078 47.7686 429.21 49.4759C429.21 49.4759 432.472 45.523 432.067 43.1645L429.389 43.021C429.389 43.021 428.933 47.8353 425.738 49.9066C425.738 49.9066 429.005 45.6563 428.81 43.0312L426.157 43.2466C426.157 43.2466 425.645 47.9275 422.952 49.6297C422.952 49.6297 426.229 44.3386 425.553 43.3337C425.553 43.3337 423.131 43.6772 422.532 44.0771C422.532 44.0771 422.071 47.4302 420.432 48.2813C420.432 48.2813 422.245 44.5129 421.876 44.2515C421.876 44.2515 418.839 45.5383 417.646 47.0047C418.678 45.6007 420.059 44.4908 421.651 43.7849C420.66 43.3727 419.571 43.2587 418.517 43.4568C418.517 43.4568 419.823 41.9904 422.393 43.4824C422.393 43.4824 424.795 42.5749 425.205 42.6877C425.205 42.6877 422.875 40.8574 420.944 40.5395C420.944 40.5395 423.269 39.873 425.907 42.5903L428.564 42.3186C428.564 42.3186 425.615 39.755 423.914 39.3244C423.914 39.3244 426.388 39.0116 429.24 42.3032L431.868 42.4211C431.868 42.4211 429.491 40.0011 427.704 39.1295C427.704 39.1295 430.06 39.3346 432.615 42.4775L434.362 42.7595C434.362 42.7595 432.595 41.0265 432.042 40.5754C431.489 40.1242 431.571 39.9755 431.571 39.9755C432.993 40.6082 434.213 41.6233 435.094 42.9082C435.094 42.9082 438.643 43.708 438.709 43.4978Z" fill="#6C63FF"/>
<path opacity="0.1" d="M450.785 128.002C450.785 128.002 445.397 109.221 433.281 115.963C433.281 115.963 430.853 116.338 430.551 118.768C430.551 118.768 431.514 118.465 431.847 120.429C431.97 121.134 432.177 121.823 432.461 122.48C432.841 123.363 433.5 124.098 434.336 124.572C434.336 124.572 438.3 128.981 447.446 127.996C447.446 127.996 449.812 128.827 450.263 128.601L447.84 125.966C447.84 125.966 445.981 127.822 443.83 127.648C443.83 127.648 447.804 126.11 447.497 125.561C447.436 125.448 446.155 124.223 446.155 124.223C446.155 124.223 442.909 127.432 439.59 127.058C439.59 127.058 444.573 125.879 445.669 123.756L443.62 122.023C443.62 122.023 440.353 125.582 436.558 125.305C436.558 125.305 441.72 123.885 443.144 121.675L440.901 120.244C440.901 120.244 437.649 123.654 434.495 123.398C434.495 123.398 440.297 121.157 440.369 119.952C440.369 119.952 438.228 118.763 437.506 118.722C437.506 118.722 435.114 121.111 433.296 120.803C433.296 120.803 437.014 118.891 436.881 118.46C436.881 118.46 433.685 117.655 431.847 118.101C433.512 117.607 435.277 117.556 436.968 117.953C436.426 117.025 435.625 116.276 434.664 115.799C434.664 115.799 436.589 115.415 437.736 118.158C437.736 118.158 440.2 118.886 440.456 119.224C440.456 119.224 439.703 116.358 438.356 114.938C438.356 114.938 440.609 115.809 441.065 119.583L443.349 120.972C443.349 120.972 442.55 117.127 441.444 115.774C441.444 115.774 443.605 117.019 443.897 121.367L445.945 123.044C445.945 123.044 445.51 119.68 444.609 117.917C444.609 117.917 446.365 119.506 446.509 123.556L447.728 124.838C447.728 124.838 447.369 122.387 447.215 121.69C447.062 120.993 447.215 120.896 447.215 120.896C447.973 122.259 448.337 123.807 448.265 125.366C448.265 125.366 450.601 128.125 450.785 128.002Z" fill="#6C63FF"/>
<path opacity="0.1" d="M330.735 170.32C330.735 170.32 320.273 153.821 310.558 163.696C310.558 163.696 308.335 164.721 308.724 167.157C308.724 167.157 309.569 166.593 310.44 168.387C310.753 169.023 311.141 169.619 311.597 170.161C312.208 170.901 313.045 171.42 313.979 171.638C313.979 171.638 319.023 174.755 327.524 171.228C327.524 171.228 330.028 171.361 330.397 171.017L327.324 169.172C327.324 169.172 326.06 171.479 323.945 171.915C323.945 171.915 327.335 169.351 326.879 168.879C326.792 168.787 325.215 167.977 325.215 167.977C325.215 167.977 322.997 171.966 319.709 172.545C319.709 172.545 324.16 170.007 324.621 167.659L322.167 166.577C322.167 166.577 320.032 170.91 316.314 171.704C316.314 171.704 320.872 168.89 321.614 166.367L319.054 165.629C319.054 165.629 316.893 169.818 313.794 170.459C313.794 170.459 318.731 166.675 318.46 165.496C318.46 165.496 316.073 164.957 315.387 165.121C315.387 165.121 313.764 168.09 311.93 168.305C311.93 168.305 314.962 165.424 314.711 165.044C314.711 165.044 311.418 165.173 309.779 166.121C311.241 165.173 312.926 164.625 314.665 164.532C313.886 163.794 312.909 163.3 311.853 163.112C311.853 163.112 313.59 162.204 315.438 164.511C315.438 164.511 317.999 164.511 318.352 164.768C318.352 164.768 316.816 162.204 315.131 161.245C315.131 161.245 317.538 161.45 319.033 164.942L321.62 165.629C321.62 165.629 319.771 162.168 318.332 161.179C318.332 161.179 320.754 161.763 322.255 165.86L324.672 166.885C324.672 166.885 323.309 163.783 321.942 162.332C321.942 162.332 324.073 163.358 325.348 167.208L326.884 168.095C326.884 168.095 325.86 165.844 325.496 165.224C325.133 164.604 325.276 164.46 325.276 164.46C326.384 165.556 327.166 166.939 327.534 168.454C327.534 168.454 330.597 170.494 330.735 170.32Z" fill="#6C63FF"/>
<path d="M399.497 86.0214C399.497 86.0214 389.546 69.2099 379.524 78.7769C379.524 78.7769 377.271 79.7511 377.589 82.1813C377.589 82.1813 378.444 81.6378 379.263 83.4579C379.556 84.1049 379.926 84.7143 380.364 85.2729C380.952 86.029 381.773 86.5696 382.699 86.811C382.699 86.811 387.641 90.0821 396.25 86.811C396.25 86.811 398.749 87.0212 399.128 86.6879L396.122 84.7499C396.122 84.7499 394.79 87.011 392.66 87.3852C392.66 87.3852 396.127 84.9089 395.692 84.4423C395.6 84.3449 394.053 83.4835 394.053 83.4835C394.053 83.4835 391.713 87.4057 388.42 87.8825C388.42 87.8825 392.947 85.4831 393.474 83.1554L391.057 82.0172C391.057 82.0172 388.788 86.288 385.045 86.9699C385.045 86.9699 389.69 84.2987 390.509 81.8019L387.979 80.9815C387.979 80.9815 385.685 85.0832 382.571 85.6472C382.571 85.6472 387.621 82.0172 387.385 80.8329C387.385 80.8329 385.019 80.2176 384.313 80.3612C384.313 80.3612 382.597 83.2785 380.759 83.4374C380.759 83.4374 383.877 80.6585 383.642 80.2689C383.642 80.2689 380.344 80.2945 378.679 81.1918C380.17 80.2914 381.87 79.7966 383.611 79.7562C382.854 78.994 381.891 78.4701 380.84 78.2488C380.84 78.2488 382.607 77.3926 384.425 79.7562C384.425 79.7562 386.986 79.8433 387.329 80.1048C387.329 80.1048 385.88 77.5413 384.22 76.4851C384.22 76.4851 386.617 76.762 388.005 80.2997L390.565 81.0687C390.565 81.0687 388.829 77.5516 387.416 76.5159C387.416 76.5159 389.823 77.1773 391.195 81.3148L393.577 82.4274C393.577 82.4274 392.312 79.2845 391.016 77.813C391.016 77.813 393.111 78.9051 394.273 82.7914L395.774 83.7245C395.774 83.7245 394.811 81.443 394.473 80.8124C394.135 80.1817 394.278 80.0433 394.278 80.0433C395.352 81.1729 396.091 82.5786 396.414 84.1039C396.414 84.1039 399.348 86.1906 399.497 86.0214Z" fill="#6C63FF"/>
<path d="M336.542 121.372C336.542 121.372 337.055 101.838 323.499 104.592C323.499 104.592 321.071 104.217 320.047 106.442C320.047 106.442 321.071 106.442 320.785 108.416C320.691 109.12 320.681 109.833 320.754 110.539C320.847 111.497 321.251 112.398 321.906 113.102C321.906 113.102 324.349 118.506 333.367 120.342C333.367 120.342 335.37 121.854 335.872 121.772L334.335 118.532C334.335 118.532 332.005 119.732 330.003 118.916C330.003 118.916 334.253 118.665 334.136 118.04C334.136 117.912 333.255 116.353 333.255 116.353C333.255 116.353 329.189 118.429 326.141 117.066C326.141 117.066 331.263 117.45 332.937 115.763L331.508 113.492C331.508 113.492 327.319 115.892 323.786 114.476C323.786 114.476 329.137 114.692 331.165 113.015L329.46 110.964C329.46 110.964 325.327 113.231 322.398 112.031C322.398 112.031 328.605 111.657 329.055 110.524C329.055 110.524 327.376 108.744 326.7 108.473C326.7 108.473 323.699 110.011 322.06 109.18C322.06 109.18 326.157 108.493 326.182 108.037C326.182 108.037 323.381 106.299 321.491 106.171C323.234 106.202 324.938 106.69 326.433 107.586C326.2 106.538 325.666 105.581 324.897 104.833C324.897 104.833 326.848 105.053 327.114 108.011C327.114 108.011 329.25 109.457 329.388 109.857C329.388 109.857 329.537 106.899 328.682 105.135C328.682 105.135 330.566 106.647 329.859 110.38L331.616 112.4C331.616 112.4 332.015 108.493 331.375 106.868C331.375 106.868 333.055 108.709 332.02 112.943L333.439 115.153C333.439 115.153 334.043 111.816 333.721 109.852C333.721 109.852 334.909 111.903 333.823 115.804L334.602 117.394C334.602 117.394 334.996 114.948 335.047 114.236C335.098 113.523 335.293 113.477 335.293 113.477C335.601 115.006 335.479 116.591 334.94 118.055C334.94 118.055 336.317 121.439 336.542 121.372Z" fill="#6C63FF"/>
<path opacity="0.1" d="M358.953 369.582C366.569 369.582 372.744 368.538 372.744 367.25C372.744 365.961 366.569 364.917 358.953 364.917C351.336 364.917 345.161 365.961 345.161 367.25C345.161 368.538 351.336 369.582 358.953 369.582Z" fill="#6C63FF"/>
<path opacity="0.1" d="M308.678 405C316.295 405 322.47 403.956 322.47 402.667C322.47 401.379 316.295 400.334 308.678 400.334C301.062 400.334 294.887 401.379 294.887 402.667C294.887 403.956 301.062 405 308.678 405Z" fill="#6C63FF"/>
<path opacity="0.1" d="M48.6983 386.855C56.315 386.855 62.4896 385.811 62.4896 384.523C62.4896 383.234 56.315 382.19 48.6983 382.19C41.0817 382.19 34.9071 383.234 34.9071 384.523C34.9071 385.811 41.0817 386.855 48.6983 386.855Z" fill="#6C63FF"/>
<path opacity="0.1" d="M413.283 402.667C420.899 402.667 427.074 401.623 427.074 400.334C427.074 399.046 420.899 398.002 413.283 398.002C405.666 398.002 399.492 399.046 399.492 400.334C399.492 401.623 405.666 402.667 413.283 402.667Z" fill="#6C63FF"/>
<path d="M427.643 374.222C439.015 374.222 448.235 372.661 448.235 370.736C448.235 368.811 439.015 367.25 427.643 367.25C416.27 367.25 407.05 368.811 407.05 370.736C407.05 372.661 416.27 374.222 427.643 374.222Z" fill="#6C63FF"/>
<path d="M436.179 365.03C437.12 364.265 437.804 363.231 438.141 362.066C438.397 360.887 437.895 359.477 436.774 359.046C435.514 358.564 434.167 359.436 433.143 360.318C432.118 361.2 430.956 362.21 429.619 362.025C430.305 361.401 430.819 360.61 431.11 359.729C431.4 358.848 431.458 357.906 431.279 356.996C431.221 356.618 431.061 356.264 430.818 355.97C430.116 355.222 428.851 355.545 428.011 356.134C425.348 358.011 424.606 361.63 424.59 364.891C424.324 363.717 424.549 362.492 424.544 361.302C424.539 360.113 424.206 358.739 423.187 358.113C422.562 357.764 421.855 357.587 421.139 357.601C419.94 357.56 418.604 357.677 417.789 358.554C416.765 359.641 417.037 361.471 417.918 362.656C418.798 363.84 420.145 364.604 421.385 365.435C422.376 366.028 423.223 366.835 423.863 367.798C423.936 367.932 423.996 368.073 424.042 368.219H431.55C433.231 367.371 434.788 366.298 436.179 365.03Z" fill="#6C63FF"/>
<path d="M39.4393 373.679C39.4393 373.679 47.3003 373.438 49.6816 371.746C52.063 370.054 61.7829 368.039 62.3718 370.751C62.9608 373.464 74.1914 384.23 65.3114 384.302C56.4313 384.374 44.6783 382.918 42.3123 381.472C39.9463 380.026 39.4393 373.679 39.4393 373.679Z" fill="#A8A8A8"/>
<path opacity="0.2" d="M65.4599 383.359C56.5798 383.431 44.8268 381.974 42.4608 380.529C40.6582 379.431 39.9412 375.489 39.7005 373.669H39.4393C39.4393 373.669 39.9515 380.021 42.3021 381.462C44.6527 382.902 56.421 384.364 65.3011 384.292C67.8617 384.292 68.7476 383.359 68.7015 382.005C68.3431 382.831 67.3649 383.343 65.4599 383.359Z" fill="black"/>
<defs>
<linearGradient id="paint0_linear" x1="115.196" y1="222.216" x2="275.043" y2="222.216" gradientUnits="userSpaceOnUse">
<stop stop-color="#808080" stop-opacity="0.25"/>
<stop offset="0.54" stop-color="#808080" stop-opacity="0.12"/>
<stop offset="1" stop-color="#808080" stop-opacity="0.1"/>
</linearGradient>
</defs>
</svg>
